<svg data-v-423bf9ae="" xmlns="http://www.w3.org/2000/svg" viewBox="0 0 511 90" class="iconLeft"><!----><!----><!----><g data-v-423bf9ae="" id="aa177c47-c610-4768-a7ef-6478242076a3" fill="#361C00" transform="matrix(4.960727463856375,0,0,4.960727463856375,108.56645166880404,9.047125614733538)"><path d="M5.66 1.20L5.66 1.20L5.66 1.20Q6.15 1.20 6.66 1.28L6.66 1.28L6.66 1.28Q7.18 1.36 7.59 1.44L7.59 1.44L7.59 1.44Q8.06 1.54 8.51 1.67L8.51 1.67L8.51 3.68L8.51 3.68Q8.09 3.56 7.54 3.40L7.54 3.40L7.54 3.40Q6.99 3.25 6.40 3.18L6.40 3.18L6.40 3.18Q5.81 3.12 5.24 3.19L5.24 3.19L5.24 3.19Q4.68 3.26 4.23 3.56L4.23 3.56L4.23 3.56Q3.78 3.85 3.51 4.42L3.51 4.42L3.51 4.42Q3.23 5.00 3.23 5.94L3.23 5.94L3.23 5.94Q3.23 6.89 3.49 7.46L3.49 7.46L3.49 7.46Q3.75 8.04 4.18 8.33L4.18 8.33L4.18 8.33Q4.61 8.62 5.16 8.69L5.16 8.69L5.16 8.69Q5.71 8.75 6.30 8.67L6.30 8.67L6.30 8.67Q6.89 8.60 7.46 8.44L7.46 8.44L7.46 8.44Q8.04 8.29 8.51 8.13L8.51 8.13L8.51 10.15L8.51 10.15Q8.05 10.29 7.57 10.40L7.57 10.40L7.57 10.40Q7.17 10.50 6.66 10.58L6.66 10.58L6.66 10.58Q6.15 10.65 5.66 10.65L5.66 10.65L5.66 10.65Q5.21 10.65 4.66 10.57L4.66 10.57L4.66 10.57Q4.10 10.49 3.54 10.28L3.54 10.28L3.54 10.28Q2.97 10.08 2.43 9.73L2.43 9.73L2.43 9.73Q1.89 9.38 1.47 8.86L1.47 8.86L1.47 8.86Q1.05 8.33 0.80 7.61L0.80 7.61L0.80 7.61Q0.55 6.89 0.55 5.94L0.55 5.94L0.55 5.94Q0.55 4.98 0.80 4.26L0.80 4.26L0.80 4.26Q1.05 3.54 1.47 3.02L1.47 3.02L1.47 3.02Q1.89 2.49 2.43 2.14L2.43 2.14L2.43 2.14Q2.97 1.79 3.54 1.58L3.54 1.58L3.54 1.58Q4.10 1.37 4.66 1.29L4.66 1.29L4.66 1.29Q5.21 1.20 5.66 1.20ZM14.78 3.04L14.66 5.22L14.66 5.22Q13.85 5.04 13.34 5.24L13.34 5.24L13.34 5.24Q12.84 5.43 12.55 5.81L12.55 5.81L12.55 5.81Q12.26 6.19 12.16 6.64L12.16 6.64L12.16 6.64Q12.05 7.10 12.05 7.41L12.05 7.41L12.05 10.50L9.56 10.50L9.56 3.22L11.48 3.22L11.86 4.55L11.86 4.55Q11.86 4.55 11.98 4.31L11.98 4.31L11.98 4.31Q12.11 4.07 12.45 3.79L12.45 3.79L12.45 3.79Q12.78 3.51 13.35 3.28L13.35 3.28L13.35 3.28Q13.92 3.04 14.78 3.04L14.78 3.04ZM20.75 3.22L23.28 3.22L23.28 3.22Q22.53 5.21 21.95 6.69L21.95 6.69L21.95 6.69Q21.38 8.18 20.92 9.25L20.92 9.25L20.92 9.25Q20.45 10.32 20.10 11.03L20.10 11.03L20.10 11.03Q19.74 11.73 19.40 12.17L19.40 12.17L19.40 12.17Q19.07 12.61 18.75 12.84L18.75 12.84L18.75 12.84Q18.42 13.06 18.05 13.17L18.05 13.17L18.05 13.17Q17.81 13.24 17.46 13.27L17.46 13.27L17.46 13.27Q17.12 13.29 16.79 13.29L16.79 13.29L16.79 13.29Q16.46 13.30 16.24 13.29L16.24 13.29L16.24 13.29Q16.02 13.29 16.02 13.29L16.02 13.29L16.03 11.37L16.81 11.35L16.81 11.35Q17.21 11.35 17.43 11.20L17.43 11.20L17.43 11.20Q17.65 11.05 17.77 10.85L17.77 10.85L17.77 10.85Q17.91 10.63 17.93 10.35L17.93 10.35L14.97 3.22L17.64 3.22L19.22 7.99L20.75 3.22ZM28.94 10.65L28.94 10.65L28.94 10.65Q28.39 10.65 27.96 10.47L27.96 10.47L27.96 10.47Q27.54 10.29 27.23 10.07L27.23 10.07L27.23 10.07Q26.87 9.81 26.61 9.48L26.61 9.48L26.61 12.15L24.09 12.15L24.09 3.22L26.19 3.22L26.56 4.16L26.56 4.16Q26.81 3.85 27.16 3.60L27.16 3.60L27.16 3.60Q27.45 3.39 27.89 3.21L27.89 3.21L27.89 3.21Q28.34 3.04 28.94 3.04L28.94 3.04L28.94 3.04Q29.76 3.04 30.39 3.34L30.39 3.34L30.39 3.34Q31.01 3.64 31.43 4.14L31.43 4.14L31.43 4.14Q31.85 4.65 32.07 5.33L32.07 5.33L32.07 5.33Q32.28 6.01 32.28 6.76L32.28 6.76L32.28 6.76Q32.28 7.52 32.07 8.22L32.07 8.22L32.07 8.22Q31.85 8.92 31.43 9.46L31.43 9.46L31.43 9.46Q31.01 10.01 30.39 10.33L30.39 10.33L30.39 10.33Q29.76 10.65 28.94 10.65ZM28.14 4.94L28.14 4.94L28.14 4.94Q27.89 4.94 27.61 5.02L27.61 5.02L27.61 5.02Q27.34 5.10 27.12 5.30L27.12 5.30L27.12 5.30Q26.89 5.50 26.75 5.87L26.75 5.87L26.75 5.87Q26.61 6.23 26.61 6.80L26.61 6.80L26.61 6.80Q26.61 7.38 26.75 7.75L26.75 7.75L26.75 7.75Q26.89 8.12 27.12 8.34L27.12 8.34L27.12 8.34Q27.34 8.55 27.61 8.64L27.61 8.64L27.61 8.64Q27.89 8.72 28.14 8.72L28.14 8.72L28.14 8.72Q28.39 8.72 28.66 8.64L28.66 8.64L28.66 8.64Q28.92 8.55 29.14 8.34L29.14 8.34L29.14 8.34Q29.36 8.12 29.50 7.75L29.50 7.75L29.50 7.75Q29.64 7.38 29.64 6.80L29.64 6.80L29.64 6.80Q29.64 6.23 29.50 5.87L29.50 5.87L29.50 5.87Q29.36 5.50 29.14 5.30L29.14 5.30L29.14 5.30Q28.92 5.10 28.66 5.02L28.66 5.02L28.66 5.02Q28.39 4.94 28.14 4.94ZM37.45 8.97L37.45 8.97L37.45 8.97Q37.65 8.97 37.84 8.96L37.84 8.96L37.84 8.96Q38.04 8.95 38.19 8.92L38.19 8.92L38.19 8.92Q38.37 8.89 38.54 8.85L38.54 8.85L38.51 10.43L38.51 10.43Q38.28 10.49 38.01 10.54L38.01 10.54L38.01 10.54Q37.77 10.58 37.46 10.62L37.46 10.62L37.46 10.62Q37.14 10.65 36.78 10.65L36.78 10.65L36.78 10.65Q36.08 10.61 35.52 10.36L35.52 10.36L35.52 10.36Q35.28 10.25 35.06 10.08L35.06 10.08L35.06 10.08Q34.83 9.91 34.66 9.66L34.66 9.66L34.66 9.66Q34.48 9.41 34.38 9.08L34.38 9.08L34.38 9.08Q34.27 8.75 34.27 8.30L34.27 8.30L34.27 5.53L32.84 5.53L32.84 3.75L34.31 3.75L34.76 1.46L36.78 1.46L36.78 3.75L38.57 3.75L38.57 5.53L36.81 5.53L36.81 8.33L36.81 8.33Q36.83 8.68 37.00 8.83L37.00 8.83L37.00 8.83Q37.16 8.97 37.45 8.97ZM43.53 3.04L43.53 3.04L43.53 3.04Q44.16 3.04 44.91 3.21L44.91 3.21L44.91 3.21Q45.67 3.39 46.32 3.83L46.32 3.83L46.32 3.83Q46.97 4.27 47.40 5.01L47.40 5.01L47.40 5.01Q47.84 5.75 47.84 6.89L47.84 6.89L47.84 6.89Q47.84 8.02 47.40 8.75L47.40 8.75L47.40 8.75Q46.97 9.48 46.32 9.90L46.32 9.90L46.32 9.90Q45.67 10.32 44.91 10.49L44.91 10.49L44.91 10.49Q44.16 10.65 43.53 10.65L43.53 10.65L43.53 10.65Q42.90 10.65 42.15 10.49L42.15 10.49L42.15 10.49Q41.41 10.32 40.77 9.90L40.77 9.90L40.77 9.90Q40.14 9.48 39.70 8.75L39.70 8.75L39.70 8.75Q39.27 8.02 39.27 6.89L39.27 6.89L39.27 6.89Q39.27 6.13 39.47 5.56L39.47 5.56L39.47 5.56Q39.68 4.98 40.01 4.56L40.01 4.56L40.01 4.56Q40.33 4.13 40.77 3.84L40.77 3.84L40.77 3.84Q41.22 3.54 41.69 3.37L41.69 3.37L41.69 3.37Q42.15 3.19 42.63 3.12L42.63 3.12L42.63 3.12Q43.11 3.04 43.53 3.04ZM43.53 8.90L43.53 8.90L43.53 8.90Q44.30 8.90 44.74 8.46L44.74 8.46L44.74 8.46Q45.19 8.01 45.19 6.89L45.19 6.89L45.19 6.89Q45.19 5.75 44.75 5.27L44.75 5.27L44.75 5.27Q44.31 4.79 43.53 4.79L43.53 4.79L43.53 4.79Q42.74 4.79 42.33 5.27L42.33 5.27L42.33 5.27Q41.92 5.75 41.92 6.89L41.92 6.89L41.92 6.89Q41.92 8.01 42.33 8.46L42.33 8.46L42.33 8.46Q42.74 8.90 43.53 8.90ZM59.89 10.50L59.11 8.55L55.96 8.55L55.17 10.50L52.64 10.50L55.87 1.34L59.21 1.34L62.62 10.50L59.89 10.50ZM56.46 6.83L58.51 6.83L58.51 6.83Q58.51 6.83 58.46 6.64L58.46 6.64L58.46 6.64Q58.42 6.45 58.35 6.15L58.35 6.15L58.35 6.15Q58.28 5.84 58.18 5.44L58.18 5.44L58.18 5.44Q58.09 5.04 57.98 4.64L57.98 4.64L57.98 4.64Q57.88 4.24 57.76 3.88L57.76 3.88L57.76 3.88Q57.65 3.51 57.55 3.25L57.55 3.25L57.55 3.25Q57.26 4.26 57.01 5.04L57.01 5.04L57.01 5.04Q56.90 5.38 56.80 5.70L56.80 5.70L56.80 5.70Q56.70 6.02 56.62 6.27L56.62 6.27L56.62 6.27Q56.55 6.52 56.50 6.68L56.50 6.68L56.50 6.68Q56.46 6.83 56.46 6.83L56.46 6.83ZM68.28 10.65L68.28 10.65L68.28 10.65Q67.73 10.65 67.31 10.47L67.31 10.47L67.31 10.47Q66.88 10.29 66.57 10.07L66.57 10.07L66.57 10.07Q66.21 9.81 65.95 9.48L65.95 9.48L65.95 12.15L63.43 12.15L63.43 3.22L65.53 3.22L65.90 4.16L65.90 4.16Q66.15 3.85 66.50 3.60L66.50 3.60L66.50 3.60Q66.79 3.39 67.24 3.21L67.24 3.21L67.24 3.21Q67.68 3.04 68.28 3.04L68.28 3.04L68.28 3.04Q69.10 3.04 69.73 3.34L69.73 3.34L69.73 3.34Q70.35 3.64 70.77 4.14L70.77 4.14L70.77 4.14Q71.19 4.65 71.41 5.33L71.41 5.33L71.41 5.33Q71.62 6.01 71.62 6.76L71.62 6.76L71.62 6.76Q71.62 7.52 71.41 8.22L71.41 8.22L71.41 8.22Q71.19 8.92 70.77 9.46L70.77 9.46L70.77 9.46Q70.35 10.01 69.73 10.33L69.73 10.33L69.73 10.33Q69.10 10.65 68.28 10.65ZM67.48 4.94L67.48 4.94L67.48 4.94Q67.23 4.94 66.96 5.02L66.96 5.02L66.96 5.02Q66.68 5.10 66.46 5.30L66.46 5.30L66.46 5.30Q66.23 5.50 66.09 5.87L66.09 5.87L66.09 5.87Q65.95 6.23 65.95 6.80L65.95 6.80L65.95 6.80Q65.95 7.38 66.09 7.75L66.09 7.75L66.09 7.75Q66.23 8.12 66.46 8.34L66.46 8.34L66.46 8.34Q66.68 8.55 66.96 8.64L66.96 8.64L66.96 8.64Q67.23 8.72 67.48 8.72L67.48 8.72L67.48 8.72Q67.73 8.72 68.00 8.64L68.00 8.64L68.00 8.64Q68.26 8.55 68.48 8.34L68.48 8.34L68.48 8.34Q68.70 8.12 68.84 7.75L68.84 7.75L68.84 7.75Q68.98 7.38 68.98 6.80L68.98 6.80L68.98 6.80Q68.98 6.23 68.84 5.87L68.84 5.87L68.84 5.87Q68.70 5.50 68.48 5.30L68.48 5.30L68.48 5.30Q68.26 5.10 68.00 5.02L68.00 5.02L68.00 5.02Q67.73 4.94 67.48 4.94ZM77.59 10.65L77.59 10.65L77.59 10.65Q77.04 10.65 76.62 10.47L76.62 10.47L76.62 10.47Q76.19 10.29 75.88 10.07L75.88 10.07L75.88 10.07Q75.52 9.81 75.26 9.48L75.26 9.48L75.26 12.15L72.74 12.15L72.74 3.22L74.84 3.22L75.21 4.16L75.21 4.16Q75.46 3.85 75.81 3.60L75.81 3.60L75.81 3.60Q76.10 3.39 76.55 3.21L76.55 3.21L76.55 3.21Q76.99 3.04 77.59 3.04L77.59 3.04L77.59 3.04Q78.41 3.04 79.04 3.34L79.04 3.34L79.04 3.34Q79.66 3.64 80.08 4.14L80.08 4.14L80.08 4.14Q80.50 4.65 80.72 5.33L80.72 5.33L80.72 5.33Q80.93 6.01 80.93 6.76L80.93 6.76L80.93 6.76Q80.93 7.52 80.72 8.22L80.72 8.22L80.72 8.22Q80.50 8.92 80.08 9.46L80.08 9.46L80.08 9.46Q79.66 10.01 79.04 10.33L79.04 10.33L79.04 10.33Q78.41 10.65 77.59 10.65ZM76.79 4.94L76.79 4.94L76.79 4.94Q76.54 4.94 76.27 5.02L76.27 5.02L76.27 5.02Q75.99 5.10 75.77 5.30L75.77 5.30L75.77 5.30Q75.54 5.50 75.40 5.87L75.40 5.87L75.40 5.87Q75.26 6.23 75.26 6.80L75.26 6.80L75.26 6.80Q75.26 7.38 75.40 7.75L75.40 7.75L75.40 7.75Q75.54 8.12 75.77 8.34L75.77 8.34L75.77 8.34Q75.99 8.55 76.27 8.64L76.27 8.64L76.27 8.64Q76.54 8.72 76.79 8.72L76.79 8.72L76.79 8.72Q77.04 8.72 77.31 8.64L77.31 8.64L77.31 8.64Q77.57 8.55 77.79 8.34L77.79 8.34L77.79 8.34Q78.01 8.12 78.15 7.75L78.15 7.75L78.15 7.75Q78.29 7.38 78.29 6.80L78.29 6.80L78.29 6.80Q78.29 6.23 78.15 5.87L78.15 5.87L78.15 5.87Q78.01 5.50 77.79 5.30L77.79 5.30L77.79 5.30Q77.57 5.10 77.31 5.02L77.31 5.02L77.31 5.02Q77.04 4.94 76.79 4.94Z"></path></g><defs data-v-423bf9ae=""><linearGradient data-v-423bf9ae="" gradientTransform="rotate(25)" id="3366f212-78d2-416c-8587-ded0179711ca" x1="0%" y1="0%" x2="100%" y2="0%"><stop data-v-423bf9ae="" offset="0%" style="stop-color: rgb(235, 76, 0); stop-opacity: 1;"></stop><stop data-v-423bf9ae="" offset="100%" style="stop-color: rgb(242, 169, 0); stop-opacity: 1;"></stop></linearGradient></defs><g data-v-423bf9ae="" id="fdd41f59-b268-4859-9e03-9d0d69d69062" transform="matrix(2.852072528086791,0,0,2.852072528086791,0.3618419448213217,-0.41116010653409063)" stroke="none" fill="url(#3366f212-78d2-416c-8587-ded0179711ca)"><path d="M16 23.787L8.102 16 16 8.213 23.898 16 16 23.787zM9.525 16L16 22.383 22.475 16 16 9.617 9.525 16z"></path><path d="M15.915 31.778L-.005 16.084 16.085.222l15.92 15.694-16.09 15.862zM1.419 16.084l14.496 14.29 14.666-14.458-14.496-14.29L1.419 16.084z"></path><path d="M15.5.924h1v30.152h-1z"></path></g><!----></svg>